<svg width="118" height="49" viewBox="0 0 118 49" fill="none" xmlns="http://www.w3.org/2000/svg">
<rect width="118" height="49" rx="6" fill="#5700FF"/>
<path d="M25.124 30.21C24.1207 30.21 23.269 29.9883 22.569 29.545C21.869 29.1017 21.3347 28.4857 20.966 27.697C20.602 26.9083 20.42 25.996 20.42 24.96C20.42 23.924 20.602 23.0117 20.966 22.223C21.3347 21.4343 21.869 20.8183 22.569 20.375C23.269 19.9317 24.1207 19.71 25.124 19.71C26.2907 19.71 27.2497 20.0063 28.001 20.599C28.757 21.1917 29.2773 21.9897 29.562 22.993L28.295 23.329C28.0897 22.5777 27.7233 21.985 27.196 21.551C26.6687 21.117 25.978 20.9 25.124 20.9C24.3727 20.9 23.7473 21.0703 23.248 21.411C22.7487 21.7517 22.373 22.2277 22.121 22.839C21.869 23.4457 21.7407 24.1527 21.736 24.96C21.7313 25.7627 21.855 26.4697 22.107 27.081C22.359 27.6877 22.737 28.1637 23.241 28.509C23.745 28.8497 24.3727 29.02 25.124 29.02C25.978 29.02 26.6687 28.803 27.196 28.369C27.7233 27.9303 28.0897 27.3377 28.295 26.591L29.562 26.927C29.2773 27.9257 28.757 28.7237 28.001 29.321C27.2497 29.9137 26.2907 30.21 25.124 30.21ZM34.3172 30.21C33.5659 30.21 32.9172 30.0397 32.3712 29.699C31.8299 29.3583 31.4122 28.887 31.1182 28.285C30.8242 27.683 30.6772 26.9923 30.6772 26.213C30.6772 25.4197 30.8265 24.7243 31.1252 24.127C31.4239 23.5297 31.8462 23.0653 32.3922 22.734C32.9382 22.398 33.5799 22.23 34.3172 22.23C35.0732 22.23 35.7242 22.4003 36.2702 22.741C36.8162 23.077 37.2339 23.546 37.5232 24.148C37.8172 24.7453 37.9642 25.4337 37.9642 26.213C37.9642 27.0017 37.8172 27.697 37.5232 28.299C37.2292 28.8963 36.8092 29.3653 36.2632 29.706C35.7172 30.042 35.0685 30.21 34.3172 30.21ZM34.3172 29.027C35.1012 29.027 35.6845 28.7657 36.0672 28.243C36.4499 27.7203 36.6412 27.0437 36.6412 26.213C36.6412 25.359 36.4475 24.68 36.0602 24.176C35.6729 23.6673 35.0919 23.413 34.3172 23.413C33.7899 23.413 33.3559 23.532 33.0152 23.77C32.6745 24.008 32.4202 24.337 32.2522 24.757C32.0842 25.177 32.0002 25.6623 32.0002 26.213C32.0002 27.0623 32.1962 27.7437 32.5882 28.257C32.9802 28.7703 33.5565 29.027 34.3172 29.027ZM44.8884 30V26.213C44.8884 25.8537 44.8557 25.5083 44.7904 25.177C44.7297 24.8457 44.6201 24.5493 44.4614 24.288C44.3074 24.022 44.0974 23.812 43.8314 23.658C43.5701 23.504 43.2387 23.427 42.8374 23.427C42.5247 23.427 42.2401 23.4807 41.9834 23.588C41.7314 23.6907 41.5144 23.8493 41.3324 24.064C41.1504 24.2787 41.0081 24.5493 40.9054 24.876C40.8074 25.198 40.7584 25.5783 40.7584 26.017L39.9394 25.765C39.9394 25.0323 40.0701 24.4047 40.3314 23.882C40.5974 23.3547 40.9684 22.951 41.4444 22.671C41.9251 22.3863 42.4897 22.244 43.1384 22.244C43.6284 22.244 44.0461 22.321 44.3914 22.475C44.7367 22.629 45.0237 22.8343 45.2524 23.091C45.4811 23.343 45.6607 23.6277 45.7914 23.945C45.9221 24.2577 46.0131 24.5773 46.0644 24.904C46.1204 25.226 46.1484 25.5317 46.1484 25.821V30H44.8884ZM39.4984 30V22.44H40.6184V24.463H40.7584V30H39.4984ZM52.1893 30C51.7413 30.0887 51.2979 30.1237 50.8593 30.105C50.4253 30.091 50.0379 30.0047 49.6973 29.846C49.3566 29.6827 49.0976 29.4307 48.9203 29.09C48.7709 28.7913 48.6893 28.4903 48.6753 28.187C48.6659 27.879 48.6613 27.5313 48.6613 27.144V20.34H49.9073V27.088C49.9073 27.396 49.9096 27.6597 49.9143 27.879C49.9236 28.0983 49.9726 28.2873 50.0613 28.446C50.2293 28.7447 50.4953 28.9197 50.8593 28.971C51.2279 29.0223 51.6713 29.0083 52.1893 28.929V30ZM47.1283 23.469V22.44H52.1893V23.469H47.1283ZM55.8731 30.21C55.3085 30.21 54.8348 30.1073 54.4521 29.902C54.0741 29.692 53.7871 29.4167 53.5911 29.076C53.3998 28.7353 53.3041 28.362 53.3041 27.956C53.3041 27.5593 53.3788 27.2163 53.5281 26.927C53.6821 26.633 53.8968 26.3903 54.1721 26.199C54.4475 26.003 54.7765 25.849 55.1591 25.737C55.5185 25.639 55.9198 25.555 56.3631 25.485C56.8111 25.4103 57.2638 25.3427 57.7211 25.282C58.1785 25.2213 58.6055 25.163 59.0021 25.107L58.5541 25.366C58.5681 24.694 58.4328 24.197 58.1481 23.875C57.8681 23.553 57.3828 23.392 56.6921 23.392C56.2348 23.392 55.8335 23.497 55.4881 23.707C55.1475 23.9123 54.9071 24.2483 54.7671 24.715L53.5841 24.358C53.7661 23.6953 54.1185 23.175 54.6411 22.797C55.1638 22.419 55.8521 22.23 56.7061 22.23C57.3921 22.23 57.9801 22.3537 58.4701 22.601C58.9648 22.8437 59.3195 23.2123 59.5341 23.707C59.6415 23.9403 59.7091 24.1947 59.7371 24.47C59.7651 24.7407 59.7791 25.0253 59.7791 25.324V30H58.6731V28.187L58.9321 28.355C58.6475 28.9663 58.2485 29.4283 57.7351 29.741C57.2265 30.0537 56.6058 30.21 55.8731 30.21ZM56.0621 29.167C56.5101 29.167 56.8975 29.0877 57.2241 28.929C57.5555 28.7657 57.8215 28.5533 58.0221 28.292C58.2228 28.026 58.3535 27.7367 58.4141 27.424C58.4841 27.1907 58.5215 26.9317 58.5261 26.647C58.5355 26.3577 58.5401 26.136 58.5401 25.982L58.9741 26.171C58.5681 26.227 58.1691 26.2807 57.7771 26.332C57.3851 26.3833 57.0141 26.4393 56.6641 26.5C56.3141 26.556 55.9991 26.6237 55.7191 26.703C55.5138 26.7683 55.3201 26.8523 55.1381 26.955C54.9608 27.0577 54.8161 27.1907 54.7041 27.354C54.5968 27.5127 54.5431 27.711 54.5431 27.949C54.5431 28.1543 54.5945 28.3503 54.6971 28.537C54.8045 28.7237 54.9678 28.8753 55.1871 28.992C55.4111 29.1087 55.7028 29.167 56.0621 29.167ZM64.7841 30.21C64.0188 30.21 63.3678 30.0397 62.8311 29.699C62.2991 29.3537 61.8931 28.88 61.6131 28.278C61.3331 27.676 61.1885 26.99 61.1791 26.22C61.1885 25.4313 61.3355 24.7383 61.6201 24.141C61.9095 23.539 62.3225 23.07 62.8591 22.734C63.3958 22.398 64.0421 22.23 64.7981 22.23C65.5961 22.23 66.2821 22.426 66.8561 22.818C67.4348 23.21 67.8221 23.7467 68.0181 24.428L66.7861 24.799C66.6275 24.3603 66.3685 24.0197 66.0091 23.777C65.6545 23.5343 65.2461 23.413 64.7841 23.413C64.2661 23.413 63.8391 23.5343 63.5031 23.777C63.1671 24.015 62.9175 24.3463 62.7541 24.771C62.5908 25.191 62.5068 25.674 62.5021 26.22C62.5115 27.06 62.7051 27.739 63.0831 28.257C63.4658 28.7703 64.0328 29.027 64.7841 29.027C65.2788 29.027 65.6895 28.915 66.0161 28.691C66.3428 28.4623 66.5901 28.1333 66.7581 27.704L68.0181 28.033C67.7568 28.7377 67.3485 29.2767 66.7931 29.65C66.2378 30.0233 65.5681 30.21 64.7841 30.21ZM73.6678 30C73.2198 30.0887 72.7765 30.1237 72.3378 30.105C71.9038 30.091 71.5165 30.0047 71.1758 29.846C70.8351 29.6827 70.5761 29.4307 70.3988 29.09C70.2495 28.7913 70.1678 28.4903 70.1538 28.187C70.1445 27.879 70.1398 27.5313 70.1398 27.144V20.34H71.3858V27.088C71.3858 27.396 71.3881 27.6597 71.3928 27.879C71.4021 28.0983 71.4511 28.2873 71.5398 28.446C71.7078 28.7447 71.9738 28.9197 72.3378 28.971C72.7065 29.0223 73.1498 29.0083 73.6678 28.929V30ZM68.6068 23.469V22.44H73.6678V23.469H68.6068ZM78.0054 30V19.92H79.1394L82.9474 27.949L86.7344 19.92H87.8824V29.993H86.6994V22.657L83.2764 30H82.6114L79.1884 22.657V30H78.0054ZM93.1212 30.21C92.3792 30.21 91.7306 30.0467 91.1752 29.72C90.6246 29.3887 90.1952 28.929 89.8872 28.341C89.5792 27.7483 89.4252 27.0577 89.4252 26.269C89.4252 25.443 89.5769 24.729 89.8802 24.127C90.1836 23.5203 90.6059 23.0537 91.1472 22.727C91.6932 22.3957 92.3326 22.23 93.0652 22.23C93.8259 22.23 94.4722 22.405 95.0042 22.755C95.5409 23.105 95.9422 23.6043 96.2082 24.253C96.4789 24.9017 96.5956 25.674 96.5582 26.57H95.2982V26.122C95.2842 25.1933 95.0952 24.5003 94.7312 24.043C94.3672 23.581 93.8259 23.35 93.1072 23.35C92.3372 23.35 91.7516 23.5973 91.3502 24.092C90.9489 24.5867 90.7482 25.296 90.7482 26.22C90.7482 27.1113 90.9489 27.802 91.3502 28.292C91.7516 28.782 92.3232 29.027 93.0652 29.027C93.5646 29.027 93.9986 28.9127 94.3672 28.684C94.7359 28.4553 95.0252 28.1263 95.2352 27.697L96.4322 28.11C96.1382 28.7773 95.6949 29.2953 95.1022 29.664C94.5142 30.028 93.8539 30.21 93.1212 30.21ZM90.3282 26.57V25.569H95.9142V26.57H90.3282Z" fill="#FDFDFC"/>
</svg>
