<svg width="66" height="66" viewBox="0 0 66 66" fill="none" xmlns="http://www.w3.org/2000/svg">
<g filter="url(#filter0_i_48_2239)">
<rect width="66" height="66" rx="8" fill="#5700FF"/>
<path fill-rule="evenodd" clip-rule="evenodd" d="M31.2831 20.5477C31.9182 19.0206 34.0815 19.0206 34.7167 20.5477L37.6661 27.6391L45.3219 28.2529C46.9706 28.385 47.6391 30.4424 46.383 31.5184L40.5501 36.5149L42.3321 43.9857C42.7159 45.5944 40.9657 46.866 39.5543 46.0039L32.9999 42.0005L26.4454 46.0039C25.034 46.866 23.2838 45.5944 23.6676 43.9857L25.4496 36.5149L19.6167 31.5184C18.3607 30.4424 19.0291 28.385 20.6778 28.2529L28.3336 27.6391L31.2831 20.5477Z" fill="#FDFDFC"/>
</g>
<defs>
<filter id="filter0_i_48_2239" x="0" y="0" width="66" height="66" filterUnits="userSpaceOnUse" color-interpolation-filters="sRGB">
<feFlood flood-opacity="0" result="BackgroundImageFix"/>
<feBlend mode="normal" in="SourceGraphic" in2="BackgroundImageFix" result="shape"/>
<feColorMatrix in="SourceAlpha" type="matrix" values="0 0 0 0 0 0 0 0 0 0 0 0 0 0 0 0 0 0 127 0" result="hardAlpha"/>
<feMorphology radius="4" operator="erode" in="SourceAlpha" result="effect1_innerShadow_48_2239"/>
<feOffset/>
<feGaussianBlur stdDeviation="7"/>
<feComposite in2="hardAlpha" operator="arithmetic" k2="-1" k3="1"/>
<feColorMatrix type="matrix" values="0 0 0 0 1 0 0 0 0 1 0 0 0 0 1 0 0 0 0.5 0"/>
<feBlend mode="normal" in2="shape" result="effect1_innerShadow_48_2239"/>
</filter>
</defs>
</svg>
