<svg width="134" height="18" viewBox="0 0 134 18" fill="none" xmlns="http://www.w3.org/2000/svg">
<path d="M3.726 13.4915C2.778 13.4915 1.98 13.2395 1.332 12.7355C0.69 12.2315 0.246 11.5535 0 10.7015L1.863 10.2605C1.947 10.6625 2.16 11.0075 2.502 11.2955C2.85 11.5775 3.237 11.7185 3.663 11.7185C3.945 11.7185 4.239 11.6465 4.545 11.5025C4.851 11.3585 5.079 11.1245 5.229 10.8005C5.331 10.5845 5.391 10.3385 5.409 10.0625C5.427 9.78047 5.436 9.45347 5.436 9.08147V0.270468H7.344V9.08147C7.344 9.46547 7.341 9.80747 7.335 10.1075C7.335 10.4075 7.305 10.6895 7.245 10.9535C7.191 11.2175 7.083 11.4905 6.921 11.7725C6.579 12.3665 6.129 12.8015 5.571 13.0775C5.013 13.3535 4.398 13.4915 3.726 13.4915ZM14.3601 13.5005C13.3941 13.5005 12.5451 13.2905 11.8131 12.8705C11.0871 12.4445 10.5201 11.8535 10.1121 11.0975C9.71006 10.3355 9.50906 9.45347 9.50906 8.45147C9.50906 7.38947 9.70706 6.46847 10.1031 5.68847C10.5051 4.90847 11.0631 4.30547 11.7771 3.87947C12.4911 3.45347 13.3221 3.24047 14.2701 3.24047C15.2601 3.24047 16.1031 3.47147 16.7991 3.93347C17.4951 4.38947 18.0141 5.04047 18.3561 5.88647C18.7041 6.73247 18.8421 7.73747 18.7701 8.90147H16.8891V8.21747C16.8771 7.08947 16.6611 6.25547 16.2411 5.71547C15.8271 5.17547 15.1941 4.90547 14.3421 4.90547C13.4001 4.90547 12.6921 5.20247 12.2181 5.79647C11.7441 6.39047 11.5071 7.24847 11.5071 8.37047C11.5071 9.43847 11.7441 10.2665 12.2181 10.8545C12.6921 11.4365 13.3761 11.7275 14.2701 11.7275C14.8581 11.7275 15.3651 11.5955 15.7911 11.3315C16.2231 11.0615 16.5591 10.6775 16.7991 10.1795L18.6441 10.7645C18.2661 11.6345 17.6931 12.3095 16.9251 12.7895C16.1571 13.2635 15.3021 13.5005 14.3601 13.5005ZM10.8951 8.90147V7.43447H17.8341V8.90147H10.8951ZM21.6803 13.2305V3.16847C21.6803 2.92247 21.6893 2.66147 21.7073 2.38547C21.7253 2.10347 21.7763 1.82747 21.8603 1.55747C21.9503 1.28147 22.0973 1.02947 22.3013 0.801468C22.5473 0.531468 22.8173 0.339468 23.1113 0.225468C23.4053 0.111468 23.6963 0.0454677 23.9843 0.0274676C24.2783 0.0094682 24.5483 0.000468493 24.7943 0.000468493H26.0183V1.54847H24.8843C24.4403 1.54847 24.1073 1.65947 23.8853 1.88147C23.6693 2.09747 23.5613 2.40647 23.5613 2.80847V13.2305H21.6803ZM20.0693 5.02247V3.51047H26.0183V5.02247H20.0693ZM27.5663 13.2305V3.16847C27.5663 2.92247 27.5753 2.66147 27.5933 2.38547C27.6113 2.10347 27.6623 1.82747 27.7463 1.55747C27.8363 1.28147 27.9833 1.02947 28.1873 0.801468C28.4333 0.531468 28.7033 0.339468 28.9973 0.225468C29.2913 0.111468 29.5823 0.0454677 29.8703 0.0274676C30.1643 0.0094682 30.4343 0.000468493 30.6803 0.000468493H31.9043V1.54847H30.7703C30.3263 1.54847 29.9933 1.65947 29.7713 1.88147C29.5553 2.09747 29.4473 2.40647 29.4473 2.80847V13.2305H27.5663ZM25.9553 5.02247V3.51047H31.9043V5.02247H25.9553ZM37.2995 13.5005C36.3335 13.5005 35.4845 13.2905 34.7525 12.8705C34.0265 12.4445 33.4595 11.8535 33.0515 11.0975C32.6495 10.3355 32.4485 9.45347 32.4485 8.45147C32.4485 7.38947 32.6465 6.46847 33.0425 5.68847C33.4445 4.90847 34.0025 4.30547 34.7165 3.87947C35.4305 3.45347 36.2615 3.24047 37.2095 3.24047C38.1995 3.24047 39.0425 3.47147 39.7385 3.93347C40.4345 4.38947 40.9535 5.04047 41.2955 5.88647C41.6435 6.73247 41.7815 7.73747 41.7095 8.90147H39.8285V8.21747C39.8165 7.08947 39.6005 6.25547 39.1805 5.71547C38.7665 5.17547 38.1335 4.90547 37.2815 4.90547C36.3395 4.90547 35.6315 5.20247 35.1575 5.79647C34.6835 6.39047 34.4465 7.24847 34.4465 8.37047C34.4465 9.43847 34.6835 10.2665 35.1575 10.8545C35.6315 11.4365 36.3155 11.7275 37.2095 11.7275C37.7975 11.7275 38.3045 11.5955 38.7305 11.3315C39.1625 11.0615 39.4985 10.6775 39.7385 10.1795L41.5835 10.7645C41.2055 11.6345 40.6325 12.3095 39.8645 12.7895C39.0965 13.2635 38.2415 13.5005 37.2995 13.5005ZM33.8345 8.90147V7.43447H40.7735V8.90147H33.8345ZM43.7288 13.2305V3.51047H45.4028V5.86847L45.1688 5.56247C45.2888 5.25047 45.4448 4.96547 45.6368 4.70747C45.8288 4.44347 46.0508 4.22747 46.3028 4.05947C46.5488 3.87947 46.8218 3.74147 47.1218 3.64547C47.4278 3.54347 47.7398 3.48347 48.0578 3.46547C48.3758 3.44147 48.6818 3.45647 48.9758 3.51047V5.27447C48.6578 5.19047 48.3038 5.16647 47.9138 5.20247C47.5298 5.23847 47.1758 5.36147 46.8518 5.57147C46.5458 5.76947 46.3028 6.00947 46.1228 6.29147C45.9488 6.57347 45.8228 6.88847 45.7448 7.23647C45.6668 7.57847 45.6278 7.94147 45.6278 8.32547V13.2305H43.7288ZM51.7576 17.5505L53.6386 12.4295L53.6656 13.9415L49.4266 3.51047H51.3886L54.5566 11.5655H53.9806L57.0046 3.51047H58.9126L53.5486 17.5505H51.7576ZM69.335 13.5005C68.039 13.5005 66.935 13.2185 66.023 12.6545C65.111 12.0845 64.412 11.2925 63.926 10.2785C63.446 9.26447 63.206 8.08847 63.206 6.75047C63.206 5.41247 63.446 4.23647 63.926 3.22247C64.412 2.20847 65.111 1.41947 66.023 0.855468C66.935 0.285468 68.039 0.000468493 69.335 0.000468493C70.829 0.000468493 72.065 0.378468 73.043 1.13447C74.027 1.89047 74.711 2.90747 75.095 4.18547L73.187 4.69847C72.935 3.79247 72.485 3.08147 71.837 2.56547C71.195 2.04947 70.361 1.79147 69.335 1.79147C68.417 1.79147 67.652 1.99847 67.04 2.41247C66.428 2.82647 65.966 3.40547 65.654 4.14947C65.348 4.89347 65.195 5.76047 65.195 6.75047C65.189 7.74047 65.339 8.60747 65.645 9.35147C65.957 10.0955 66.419 10.6745 67.031 11.0885C67.649 11.5025 68.417 11.7095 69.335 11.7095C70.361 11.7095 71.195 11.4515 71.837 10.9355C72.485 10.4135 72.935 9.70247 73.187 8.80247L75.095 9.31547C74.711 10.5935 74.027 11.6105 73.043 12.3665C72.065 13.1225 70.829 13.5005 69.335 13.5005ZM79.8195 13.5005C79.0995 13.5005 78.4965 13.3685 78.0105 13.1045C77.5245 12.8345 77.1555 12.4805 76.9035 12.0425C76.6575 11.5985 76.5345 11.1125 76.5345 10.5845C76.5345 10.0925 76.6215 9.66047 76.7955 9.28847C76.9695 8.91647 77.2275 8.60147 77.5695 8.34347C77.9115 8.07947 78.3315 7.86647 78.8295 7.70447C79.2615 7.57847 79.7505 7.46747 80.2965 7.37147C80.8425 7.27547 81.4155 7.18547 82.0155 7.10147C82.6215 7.01747 83.2215 6.93347 83.8155 6.84947L83.1315 7.22747C83.1435 6.46547 82.9815 5.90147 82.6455 5.53547C82.3155 5.16347 81.7455 4.97747 80.9355 4.97747C80.4255 4.97747 79.9575 5.09747 79.5315 5.33747C79.1055 5.57147 78.8085 5.96147 78.6405 6.50747L76.8855 5.96747C77.1255 5.13347 77.5815 4.47047 78.2535 3.97847C78.9315 3.48647 79.8315 3.24047 80.9535 3.24047C81.8235 3.24047 82.5795 3.39047 83.2215 3.69047C83.8695 3.98447 84.3435 4.45247 84.6435 5.09447C84.7995 5.41247 84.8955 5.74847 84.9315 6.10247C84.9675 6.45647 84.9855 6.83747 84.9855 7.24547V13.2305H83.3205V11.0075L83.6445 11.2955C83.2425 12.0395 82.7295 12.5945 82.1055 12.9605C81.4875 13.3205 80.7255 13.5005 79.8195 13.5005ZM80.1525 11.9615C80.6865 11.9615 81.1455 11.8685 81.5295 11.6825C81.9135 11.4905 82.2225 11.2475 82.4565 10.9535C82.6905 10.6595 82.8435 10.3535 82.9155 10.0355C83.0175 9.74747 83.0745 9.42347 83.0865 9.06347C83.1045 8.70347 83.1135 8.41547 83.1135 8.19947L83.7255 8.42447C83.1315 8.51447 82.5915 8.59547 82.1055 8.66747C81.6195 8.73947 81.1785 8.81147 80.7825 8.88347C80.3925 8.94947 80.0445 9.03047 79.7385 9.12647C79.4805 9.21647 79.2495 9.32447 79.0455 9.45047C78.8475 9.57647 78.6885 9.72947 78.5685 9.90947C78.4545 10.0895 78.3975 10.3085 78.3975 10.5665C78.3975 10.8185 78.4605 11.0525 78.5865 11.2685C78.7125 11.4785 78.9045 11.6465 79.1625 11.7725C79.4205 11.8985 79.7505 11.9615 80.1525 11.9615ZM94.1445 13.2305V8.45147C94.1445 8.07347 94.1115 7.68647 94.0455 7.29047C93.9855 6.88847 93.8655 6.51647 93.6855 6.17447C93.5115 5.83247 93.2625 5.55647 92.9385 5.34647C92.6205 5.13647 92.2035 5.03147 91.6875 5.03147C91.3515 5.03147 91.0335 5.08847 90.7335 5.20247C90.4335 5.31047 90.1695 5.48747 89.9415 5.73347C89.7195 5.97947 89.5425 6.30347 89.4105 6.70547C89.2845 7.10747 89.2215 7.59647 89.2215 8.17247L88.0515 7.73147C88.0515 6.84947 88.2165 6.07247 88.5465 5.40047C88.8765 4.72247 89.3505 4.19447 89.9685 3.81647C90.5865 3.43847 91.3335 3.24947 92.2095 3.24947C92.8815 3.24947 93.4455 3.35747 93.9015 3.57347C94.3575 3.78947 94.7265 4.07447 95.0085 4.42847C95.2965 4.77647 95.5155 5.15747 95.6655 5.57147C95.8155 5.98547 95.9175 6.39047 95.9715 6.78647C96.0255 7.18247 96.0525 7.53047 96.0525 7.83047V13.2305H94.1445ZM87.3135 13.2305V3.51047H88.9965V6.31847H89.2215V13.2305H87.3135ZM105.219 13.2305V8.45147C105.219 8.07347 105.186 7.68647 105.12 7.29047C105.06 6.88847 104.94 6.51647 104.76 6.17447C104.586 5.83247 104.337 5.55647 104.013 5.34647C103.695 5.13647 103.278 5.03147 102.762 5.03147C102.426 5.03147 102.108 5.08847 101.808 5.20247C101.508 5.31047 101.244 5.48747 101.016 5.73347C100.794 5.97947 100.617 6.30347 100.485 6.70547C100.359 7.10747 100.296 7.59647 100.296 8.17247L99.1257 7.73147C99.1257 6.84947 99.2907 6.07247 99.6207 5.40047C99.9507 4.72247 100.425 4.19447 101.043 3.81647C101.661 3.43847 102.408 3.24947 103.284 3.24947C103.956 3.24947 104.52 3.35747 104.976 3.57347C105.432 3.78947 105.801 4.07447 106.083 4.42847C106.371 4.77647 106.59 5.15747 106.74 5.57147C106.89 5.98547 106.992 6.39047 107.046 6.78647C107.1 7.18247 107.127 7.53047 107.127 7.83047V13.2305H105.219ZM98.3877 13.2305V3.51047H100.071V6.31847H100.296V13.2305H98.3877ZM113.569 13.5005C112.597 13.5005 111.754 13.2815 111.04 12.8435C110.326 12.4055 109.774 11.8025 109.384 11.0345C109 10.2605 108.808 9.36947 108.808 8.36147C108.808 7.34747 109.006 6.45647 109.402 5.68847C109.798 4.91447 110.353 4.31447 111.067 3.88847C111.781 3.45647 112.615 3.24047 113.569 3.24047C114.541 3.24047 115.384 3.45947 116.098 3.89747C116.812 4.33547 117.364 4.93847 117.754 5.70647C118.144 6.47447 118.339 7.35947 118.339 8.36147C118.339 9.37547 118.141 10.2695 117.745 11.0435C117.355 11.8115 116.803 12.4145 116.089 12.8525C115.375 13.2845 114.535 13.5005 113.569 13.5005ZM113.569 11.7275C114.499 11.7275 115.192 11.4155 115.648 10.7915C116.11 10.1615 116.341 9.35147 116.341 8.36147C116.341 7.34747 116.107 6.53747 115.639 5.93147C115.177 5.31947 114.487 5.01347 113.569 5.01347C112.939 5.01347 112.42 5.15747 112.012 5.44547C111.604 5.72747 111.301 6.12047 111.103 6.62447C110.905 7.12247 110.806 7.70147 110.806 8.36147C110.806 9.38147 111.04 10.1975 111.508 10.8095C111.976 11.4215 112.663 11.7275 113.569 11.7275ZM127.139 13.2305V8.45147C127.139 8.07347 127.106 7.68647 127.04 7.29047C126.98 6.88847 126.86 6.51647 126.68 6.17447C126.506 5.83247 126.257 5.55647 125.933 5.34647C125.615 5.13647 125.198 5.03147 124.682 5.03147C124.346 5.03147 124.028 5.08847 123.728 5.20247C123.428 5.31047 123.164 5.48747 122.936 5.73347C122.714 5.97947 122.537 6.30347 122.405 6.70547C122.279 7.10747 122.216 7.59647 122.216 8.17247L121.046 7.73147C121.046 6.84947 121.211 6.07247 121.541 5.40047C121.871 4.72247 122.345 4.19447 122.963 3.81647C123.581 3.43847 124.328 3.24947 125.204 3.24947C125.876 3.24947 126.44 3.35747 126.896 3.57347C127.352 3.78947 127.721 4.07447 128.003 4.42847C128.291 4.77647 128.51 5.15747 128.66 5.57147C128.81 5.98547 128.912 6.39047 128.966 6.78647C129.02 7.18247 129.047 7.53047 129.047 7.83047V13.2305H127.139ZM120.308 13.2305V3.51047H121.991V6.31847H122.216V13.2305H120.308ZM131.715 13.2305V11.2415H133.704V13.2305H131.715Z" fill="#5700FF"/>
</svg>
